<svg xmlns="http://www.w3.org/2000/svg" xmlns:xlink="http://www.w3.org/1999/xlink" version="1.1" x="0px" y="0px" viewBox="0 0 100 100" enable-background="new 0 0 100 100" xml:space="preserve"><path fill="#808080" d="M96.423,89.975H46.797l50.47-50.477c3.645-3.645,3.645-9.575,0-13.22L79.417,8.429c-1.42-1.42-3.186-2.249-5.028-2.562  c0.003,0.001-8.167,0.431-16.057,1.328c-2.425,0.274-4.449,1.648-5.86,3.058L2.733,59.995c-3.645,3.645-3.645,9.572,0,13.217  l17.849,17.85c1.753,1.756,4.097,2.724,6.587,2.724c0.194,0,12.049-0.234,12.172-0.24c0.598-0.056,2.033-0.219,2.033-0.219h55.048  c0.924,0,1.676-0.752,1.676-1.676C98.1,90.727,97.348,89.975,96.423,89.975z M43.279,88.2c-2.187,2.184-5.743,2.184-7.933,0  L17.497,70.353c-2.188-2.191-2.188-5.749,0-7.934l25.424-25.423l25.704,25.854L43.279,88.2z M65.267,9.865l5.046-0.413  l-27.469,27.47l-4.208-0.425L65.267,9.865z M5.378,70.572c-2.189-2.188-2.189-5.746,0-7.937l26.853-26.853l5.971,0.641l-23.35,23.35  c-3.645,3.645-3.645,9.579,0,13.22l16.966,16.966c-0.271,0.006-0.515,0.009-0.776,0.015h-4.597c-1.217-0.157-2.345-0.681-3.22-1.559  L5.378,70.572z"></path></svg>
