<?xml version="1.0" encoding="utf-8"?>
<!-- Generator: Adobe Illustrator 19.1.0, SVG Export Plug-In . SVG Version: 6.00 Build 0)  -->
<svg
  version="1.1" xmlns="http://www.w3.org/2000/svg" xmlns:xlink="http://www.w3.org/1999/xlink"
  x="0px" y="0px"
	viewBox="36.3 36 282.3 36.3"
  xml:space="preserve"
>
<style type="text/css">
	.st2{fill-rule:evenodd;clip-rule:evenodd;fill:#1A171B;}
	.st3{fill-rule:evenodd;clip-rule:evenodd;fill:#DB0011;}
	.st4{fill:#1A171B;}
</style>

<g id="Layer_1">
	<g>
		<g>
			<g>
				<g>
					<path class="st2" d="M62.2,55.3c0,0,0,12.5,0,12.5c0,1.6-1.4,3-3.1,3h-1.7v0.6h14.4v-0.6h-1.7c-1.8,0-3.1-1.4-3.1-3V55.1V39.9
						c0-1.5,1.4-3,3.1-3h1.7v-0.6H57.4v0.6h1.7c1.8,0,3.1,1.4,3.1,3v13.6h-17V39.9c0-1.5,1.4-3,3.1-3H50v-0.6H35.6v0.6h1.7
						c1.8,0,3.1,1.4,3.1,3v15.2v12.7c0,1.6-1.4,3-3.1,3h-1.7v0.6H50v-0.6h-1.7c-1.8,0-3.1-1.4-3.1-3c0,0,0-12.5,0-12.5H62.2z"/>
					<path class="st2" d="M96.4,62.2c0.1,2.1-1.2,5.2-2.9,6.8c-1.7,1.5-4.1,2.9-7.4,2.9c-3.7,0-6.9-2-8-2.4
						c-0.7-0.3-1.6-0.2-2.2,0.1c-0.6,0.4-1,1-1.2,2.2h-0.5V59.6h0.5c0.5,3.7,2.2,5.9,3.3,7.2c1.8,2,5.1,3.2,8.4,2.7
						c2.6-0.4,5.4-3.2,5.1-6.6c-0.1-1.2-0.4-3.1-3-4.7c-1.6-1.1-3.9-2.6-6.1-4c-2.7-1.8-5.3-3.8-6-4.6c-0.9-1-2.1-2.6-2.1-5
						c0-2.1,0.8-4.4,2.5-6c1.7-1.6,3.9-2.8,7.2-2.8c3.3,0,5.7,1.7,6.6,2.1c0.8,0.4,1.8,0.3,2.3,0c0.5-0.3,0.9-0.7,1-1.9h0.5v11.5
						h-0.5c-0.5-3.7-2.1-6.5-3.2-7.6c-1.1-1-3.4-2.5-6.7-1.8c-3.2,0.6-4.7,2-5,4.6c-0.2,1.9,0.8,3.1,1.4,3.8c1.2,1.5,9,5.9,12.6,9
						C94.7,57.1,96.2,58.9,96.4,62.2z"/>
					<path class="st2" d="M107.3,69.4c2.4,0.7,7.1,1.3,10.3-1c3.9-2.8,4.7-9.5-0.8-13.1c-2.2-1.4-7.7-1.3-9.5-0.9V69.4z M107.3,52.5
						c1.7,0.4,6.8,0.6,8.8-0.7c3.1-2,4.2-5.1,3.6-7.9c-0.3-1.7-1.2-3.2-2.7-4.3c-3-2.1-7.3-1.8-9.6-1.1V52.5z M118.7,53.5
						c6.3,2.1,8.1,6.6,6.9,11.1c-1.4,5.4-7.4,6.4-9.4,6.7c-0.9,0.1-3.1,0.1-5.4,0.1c-4,0-9,0-13.1,0v-0.6h2.1c1.3,0,2.8-1.1,2.8-2.8
						v-28c0-1.7-1.5-2.8-2.8-2.8h-2.1v-0.6h12.5c3,0,4.6,0.3,5.7,0.5c1.8,0.3,6.9,1.9,8.2,6.7C125.1,47.4,123.2,52.1,118.7,53.5z"/>
					<path class="st2" d="M159,36.9l0.5,11.9l-0.7,0c-0.3-3-1.5-5.1-2.9-6.5c-0.4-0.4-1.2-1.2-2.3-1.9c-1.9-1.2-4.7-2.2-8-1.6
						c-5,0.9-7.5,4.2-8.8,7.3c-1.6,3.9-2.6,10.5,0.1,16.2c2.2,4.6,6.3,6.5,9.6,7c2.7,0.4,8.8,0.3,13.4-6l0.7,0.5
						c-3.6,5.1-8.4,8.3-13.8,8.3c-7-0.1-11.4-3.9-13.4-6.2c-2.1-2.4-3.7-7-3.8-11c0-3.5,0.8-7.5,2-9.8c2.2-4,6.8-7.9,12.8-8.5
						c4.5-0.4,7.5,0.4,10,1.9c1.3,0.7,2,0.8,2.7,0.5c0.7-0.3,1.2-0.9,1.2-2H159z"/>
					<polygon class="st3" points="170.6,53.9 188.1,71.4 188.1,36.3 					"/>
					<polygon class="st3" points="188.1,71.4 223.2,71.4 205.7,53.9 					"/>
					<polygon class="st3" points="205.7,53.9 223.2,36.3 188.1,36.3 					"/>
					<polygon class="st3" points="223.2,36.3 223.2,71.4 240.8,53.9 					"/>
				</g>
				<g>
					<path class="st4" d="M262.6,36.5v0.6c-2,0.1-3.3,0.5-3.9,1.1c-0.6,0.5-0.8,2.1-0.8,4l0,16.5c0,2.7,0.3,4.8,1,6.4
						c1.4,2.8,3.6,4.2,7.5,4.2c4.3,0,6.7-1.4,8.2-4.3c0.8-1.6,1.2-3.8,1.2-7.2V44.2c0-2.8-0.2-5.1-0.9-5.9c-0.7-0.7-2.1-1-4-1.2
						l0-0.6h11.5l0,0.6c-2,0.2-3.4,0.5-4,1.3c-0.6,0.8-0.8,3-0.8,5.8v13.6c0,3.6-0.3,6.2-1.4,8.2c-2,3.7-5.2,5.6-10.9,5.6
						c-5.6,0-8.9-1.8-10.9-5.5c-1.1-2-1.3-4.6-1.3-7.8l0-16.1c0-1.9-0.3-3.4-0.9-3.9c-0.6-0.5-1.9-0.9-3.8-1.1v-0.6L262.6,36.5z"/>
					<path class="st4" d="M284.8,70.6c2.1-0.2,3.4-0.8,4-1.4c0.5-0.6,0.8-2.5,0.8-4.7V42.2c0-1.9-0.3-3.3-0.9-3.8
						c-0.6-0.6-1.9-1.1-3.9-1.3l0-0.6h14.1l0,0.6c-2,0.1-3.3,0.7-3.9,1.2c-0.6,0.6-0.9,1.9-0.9,3.8l0.1,11.1
						c3.4-3.3,7.7-7.5,7.7-7.5s4.8-4.5,5.7-5.4c1.1-1.1,0.2-3.3-2-3.3c-0.5,0-1.3-0.1-2.4-0.1l0-0.5h13.5l0,0.6
						c-2.1,0-2.5,0.3-3.6,1c-0.9,0.6-2,1.7-3.7,3.3l-10.9,10.5L311,64.7c2.3,2.4,4.4,4.5,5.2,5.1c0.8,0.6,1.4,0.6,2.9,0.7v0.6h-17.3
						l0-0.6c1.4,0,4.2-0.2,4.7-0.4c0.5-0.2,1-0.7,1-1.3c0-0.3-0.1-1-0.4-1.6c-0.3-0.6-1-1.5-1.7-2.3l-9.9-10.3l-1.4,1.3v9.1
						c0,1.9,0.3,3.7,0.9,4.2c0.6,0.5,1.9,1.1,3.8,1.3v0.6h-14V70.6z"/>
				</g>
			</g>
		</g>
	</g>
</g>
</svg>
