<!-- Generator: Adobe Illustrator 16.0.0, SVG Export Plug-In . SVG Version: 6.00 Build 0)  -->
<svg xmlns:rdf="http://www.w3.org/1999/02/22-rdf-syntax-ns#" xmlns="http://www.w3.org/2000/svg" enable-background="new 0 0 174.146 30.701" xml:space="preserve" height="56.179806" viewBox="0 0 300.00001 56.179805" width="300" version="1.1" y="0px" x="0px" xmlns:cc="http://creativecommons.org/ns#" xmlns:dc="http://purl.org/dc/elements/1.1/"><metadata><rdf:RDF><cc:Work rdf:about=""><dc:format>image/svg+xml</dc:format><dc:type rdf:resource="http://purl.org/dc/dcmitype/StillImage"/><dc:title/></cc:Work></rdf:RDF></metadata><defs><clipPath id="clipPath16" clipPathUnits="userSpaceOnUse"><path d="m106.549,591.874,129.293,0,0,27.246-129.293,0,0-27.246z"/></clipPath></defs>
<g clip-path="url(#clipPath16)" transform="matrix(2.3204894,0,0,-2.3204894,-245.24606,1438.6612)"><g transform="translate(123.0471,607.02)"><path d="M0,0c-0.015,0,0-7.775,0-7.775,0-0.978-0.84-1.835-1.94-1.835h-1.054v-0.396h8.921v0.396h-1.054c-1.085,0-1.94,0.871-1.94,1.835v7.897,9.425c0,0.948,0.84,1.833,1.94,1.833h1.054v0.398h-8.921v-0.398h1.054c1.115,0,1.94-0.885,1.94-1.833v-8.447h-10.57v8.447c0,0.948,0.855,1.833,1.94,1.833h1.053v0.398h-8.921v-0.398h1.055c1.099,0,1.94-0.885,1.94-1.833v-9.425-7.897c0-0.964-0.841-1.835-1.94-1.835h-1.055v-0.396h8.921v0.396h-1.053c-1.085,0-1.94,0.871-1.94,1.835,0,0,0.014,7.775,0,7.775h10.57z" fill-rule="nonzero" fill="#1a1818"/></g><g transform="translate(144.26221,602.7139)"><path d="m0,0c0.077-1.28-0.717-3.223-1.818-4.215-1.058-0.956-2.566-1.788-4.582-1.788-2.291,0-4.262,1.222-4.98,1.497-0.435,0.167-1.005,0.149-1.345-0.061-0.397-0.245-0.641-0.641-0.733-1.375h-0.336v7.547h0.336c0.306-2.322,1.39-3.686,2.063-4.461,1.1-1.268,3.177-1.986,5.178-1.665,1.59,0.255,3.33,1.98,3.139,4.117-0.068,0.771-0.237,1.893-1.84,2.94-1.006,0.658-2.435,1.591-3.789,2.49-1.709,1.133-3.26,2.36-3.696,2.857-0.572,0.651-1.284,1.588-1.284,3.086,0,1.283,0.489,2.749,1.528,3.727,1.039,0.977,2.444,1.71,4.46,1.71,2.017,0,3.545-1.069,4.064-1.313s1.093-0.187,1.42,0c0.321,0.184,0.535,0.459,0.627,1.192h0.336v-7.15h-0.336c-0.306,2.323-1.314,4.063-2.017,4.705-0.702,0.642-2.077,1.528-4.124,1.131-1.964-0.381-2.92-1.269-3.101-2.841-0.138-1.198,0.512-1.935,0.886-2.383,0.764-0.916,5.611-3.663,7.806-5.561,1.131-0.977,2.017-2.139,2.138-4.186" fill-rule="nonzero" fill="#1a1818"/></g><g transform="translate(151.36369,598.2459)"><path d="M0,0c1.509-0.467,4.382-0.826,6.384,0.609,2.402,1.719,2.908,5.92-0.482,8.109-1.365,0.882-4.771,0.821-5.902,0.555v-9.273zm0,10.501c1.069-0.274,4.217-0.348,5.438,0.428,1.914,1.215,2.578,3.165,2.225,4.889-0.212,1.036-0.76,1.992-1.706,2.657-1.863,1.314-4.551,1.101-5.957,0.673v-8.647zm7.027-0.61c3.883-1.333,4.99-4.074,4.269-6.898-0.846-3.32-4.59-3.995-5.804-4.156-0.548-0.071-1.947-0.065-3.33-0.065-2.468-0.003-5.59,0.005-8.097,0.005v0.397h1.284c0.816,0,1.748,0.688,1.748,1.726v17.392c0,1.039-0.932,1.741-1.741,1.741h-1.283v0.398c2.214,0,5.439,0.001,7.745,0,1.863,0,2.875-0.179,3.529-0.306,1.099-0.213,4.308-1.161,5.071-4.154,0.591-2.318-0.565-5.24-3.391-6.08" fill-rule="nonzero" fill="#1a1818"/></g><g transform="translate(183.07919,618.4167)"><path d="m0,0,0.314-7.378-0.443-0.016c-0.214,1.865-0.917,3.178-1.803,4.034-0.255,0.246-0.739,0.744-1.437,1.184-1.163,0.733-2.893,1.381-4.948,1.015-3.086-0.55-4.675-2.589-5.469-4.552-0.978-2.413-1.597-6.54,0.062-10.022,1.345-2.826,3.931-4.003,5.926-4.307,1.7-0.259,5.469-0.179,8.341,3.696l0.458-0.305c-2.231-3.147-5.194-5.163-8.585-5.132-4.338,0.038-7.064,2.429-8.31,3.849-1.314,1.497-2.322,4.338-2.335,6.813-0.01,2.2,0.475,4.648,1.265,6.08,1.36,2.459,4.201,4.903,7.943,5.27,2.803,0.274,4.645-0.275,6.219-1.176,0.786-0.451,1.228-0.503,1.656-0.321,0.427,0.184,0.772,0.55,0.772,1.268h0.374z" fill-rule="nonzero" fill="#1a1818"/></g><path d="m223.224,597.016-21.764,0,0,21.759,21.764,0,0-21.759z" fill-rule="nonzero" fill="#FFF"/><g transform="translate(190.5751,607.89571)"><path d="m0,0,10.883-10.882,0,21.765l-10.883-10.883z" fill-rule="nonzero" fill="#e71d1c"/></g><g transform="translate(201.4597,597.0144)"><path d="M0,0,21.765,0,10.882,10.882,0,0z" fill-rule="nonzero" fill="#e71d1c"/></g><g transform="translate(212.3421,607.8961)"><path d="m0,0,10.883,10.883-21.765,0l10.882-10.883z" fill-rule="nonzero" fill="#e71d1c"/></g><g transform="translate(223.2254,618.7787)"><path d="M0,0,0-21.765,10.883-10.883,0,0z" fill-rule="nonzero" fill="#e71d1c"/></g></g></svg>
